{
  "accessors": [
    {
      "bufferView": 2,
      "componentType": 5126,
      "count": 46043,
      "max": [
        9.0832786560058594,
        7.7590241432189941,
        24.131671905517578
      ],
      "min": [
        -19.719921112060547,
        -45.691303253173828,
        -20.102296829223633
      ],
      "type": "VEC3"
    },
    {
      "bufferView": 2,
      "byteOffset": 552516,
      "componentType": 5126,
      "count": 46043,
      "max": [
        0.99989891052246094,
        0.94899636507034302,
        0.99993735551834106
      ],
      "min": [
        -0.99938088655471802,
        -0.99999850988388062,
        -0.99998658895492554
      ],
      "type": "VEC3"
    },
    {
      "bufferView": 3,
      "componentType": 5126,
      "count": 46043,
      "max": [
        0.9999849796295166,
        0.99999988079071045,
        0.99859321117401123,
        1
      ],
      "min": [
        -0.99774366617202759,
        -0.54901993274688721,
        -0.99944490194320679,
        -1
      ],
      "type": "VEC4"
    },
    {
      "bufferView": 3,
      "byteOffset": 736688,
      "componentType": 5126,
      "count": 46043,
      "max": [
        0.75294101238250732,
        0.75294101238250732,
        0.75294101238250732,
        1
      ],
      "min": [
        0.75294101238250732,
        0.75294101238250732,
        0.75294101238250732,
        1
      ],
      "type": "VEC4"
    },
    {
      "bufferView": 1,
      "componentType": 5126,
      "count": 46043,
      "max": [
        0.99899899959564209,
        0.99803400039672852
      ],
      "min": [
        0.00012199999764561653,
        0.2710689902305603
      ],
      "type": "VEC2"
    },
    {
      "bufferView": 0,
      "componentType": 5125,
      "count": 266988,
      "max": [
        46042
      ],
      "min": [
        0
      ],
      "type": "SCALAR"
    },
    {
      "bufferView": 2,
      "byteOffset": 1105032,
      "componentType": 5126,
      "count": 260,
      "max": [
        -3.2379980087280273,
        1.3244969844818115,
        5.2951030731201172
      ],
      "min": [
        -14.684549331665039,
        -45.513435363769531,
        0.96784102916717529
      ],
      "type": "VEC3"
    },
    {
      "bufferView": 2,
      "byteOffset": 1108152,
      "componentType": 5126,
      "count": 260,
      "max": [
        -0.43633800745010376,
        0.53194963932037354,
        0.68666833639144897
      ],
      "min": [
        -0.98819977045059204,
        -0.85012960433959961,
        -0.26565375924110413
      ],
      "type": "VEC3"
    },
    {
      "bufferView": 3,
      "byteOffset": 1473376,
      "componentType": 5126,
      "count": 260,
      "max": [
        0,
        0,
        0,
        1
      ],
      "min": [
        0,
        0,
        0,
        1
      ],
      "type": "VEC4"
    },
    {
      "bufferView": 3,
      "byteOffset": 1477536,
      "componentType": 5126,
      "count": 260,
      "max": [
        0.75294101238250732,
        0.75294101238250732,
        0.75294101238250732,
        1
      ],
      "min": [
        0.75294101238250732,
        0.75294101238250732,
        0.75294101238250732,
        1
      ],
      "type": "VEC4"
    },
    {
      "bufferView": 0,
      "byteOffset": 1067952,
      "componentType": 5125,
      "count": 621,
      "max": [
        259
      ],
      "min": [
        0
      ],
      "type": "SCALAR"
    }
  ],
  "asset": {
    "extras": {
      "author": "electricarchaeo (https://sketchfab.com/electricarchaeo)",
      "license": "CC-BY-4.0 (http://creativecommons.org/licenses/by/4.0/)",
      "source": "https://sketchfab.com/models/d84a00e4ef2548979b581f87718460f8",
      "title": "Gravestone3"
    },
    "generator": "Sketchfab-3.29.4",
    "version": "2.0"
  },
  "bufferViews": [
    {
      "buffer": 0,
      "byteLength": 1070436,
      "byteOffset": 0,
      "name": "floatBufferViews",
      "target": 34963
    },
    {
      "buffer": 0,
      "byteLength": 368344,
      "byteOffset": 1070436,
      "byteStride": 8,
      "name": "floatBufferViews",
      "target": 34962
    },
    {
      "buffer": 0,
      "byteLength": 1111272,
      "byteOffset": 1438780,
      "byteStride": 12,
      "name": "floatBufferViews",
      "target": 34962
    },
    {
      "buffer": 0,
      "byteLength": 1481696,
      "byteOffset": 2550052,
      "byteStride": 16,
      "name": "floatBufferViews",
      "target": 34962
    }
  ],
  "buffers": [
    {
      "byteLength": 4031748,
      "uri": "scene.bin"
    }
  ],
  "extensionsUsed": [
    "KHR_materials_unlit"
  ],
  "images": [
    {
      "uri": "textures/material_0_baseColor.jpeg"
    }
  ],
  "materials": [
    {
      "doubleSided": true,
      "emissiveFactor": [
        0,
        0,
        0
      ],
      "extensions": {
        "KHR_materials_unlit": {}
      },
      "name": "material_0",
      "pbrMetallicRoughness": {
        "baseColorFactor": [
          1,
          1,
          1,
          1
        ],
        "baseColorTexture": {
          "index": 0,
          "texCoord": 0
        },
        "metallicFactor": 0,
        "roughnessFactor": 1
      }
    },
    {
      "doubleSided": true,
      "emissiveFactor": [
        0,
        0,
        0
      ],
      "extensions": {
        "KHR_materials_unlit": {}
      },
      "name": "material_1",
      "pbrMetallicRoughness": {
        "baseColorFactor": [
          0.50196099999999999,
          0.50196099999999999,
          0.50196099999999999,
          1
        ],
        "metallicFactor": 0,
        "roughnessFactor": 1
      }
    }
  ],
  "meshes": [
    {
      "primitives": [
        {
          "attributes": {
            "COLOR_0": 3,
            "NORMAL": 1,
            "POSITION": 0,
            "TANGENT": 2,
            "TEXCOORD_0": 4
          },
          "indices": 5,
          "material": 0,
          "mode": 4
        }
      ]
    },
    {
      "primitives": [
        {
          "attributes": {
            "COLOR_0": 9,
            "NORMAL": 7,
            "POSITION": 6,
            "TANGENT": 8
          },
          "indices": 10,
          "material": 1,
          "mode": 4
        }
      ]
    }
  ],
  "nodes": [
    {
      "children": [
        1
      ],
      "name": "RootNode (gltf orientation matrix)",
      "rotation": [
        -0.70710678118654746,
        -0,
        -0,
        0.70710678118654757
      ]
    },
    {
      "children": [
        2
      ],
      "matrix": [
        0,
        -1,
        0,
        0,
        0,
        0,
        -1,
        0,
        1,
        0,
        0,
        0,
        -7.3330087661743164,
        -24.284460067749023,
        -16.951452255249023,
        1
      ],
      "name": "RootNode (model correction matrix)"
    },
    {
      "children": [
        3,
        4
      ],
      "name": "mesh.obj.cleaner"
    },
    {
      "mesh": 0,
      "name": ""
    },
    {
      "mesh": 1,
      "name": ""
    }
  ],
  "samplers": [
    {
      "magFilter": 9729,
      "minFilter": 9987,
      "wrapS": 10497,
      "wrapT": 10497
    }
  ],
  "scene": 0,
  "scenes": [
    {
      "name": "OSG_Scene",
      "nodes": [
        0
      ]
    }
  ],
  "textures": [
    {
      "sampler": 0,
      "source": 0
    }
  ]
}

